<?xml version="1.0" standalone="no"?>
<!DOCTYPE svg PUBLIC "-//W3C//DTD SVG 20010904//EN"
 "http://www.w3.org/TR/2001/REC-SVG-20010904/DTD/svg10.dtd">
<svg version="1.0" xmlns="http://www.w3.org/2000/svg"
 width="300.000000pt" height="300.000000pt" viewBox="0 0 300.000000 300.000000"
 preserveAspectRatio="xMidYMid meet">
<metadata>
Created by potrace 1.10, written by Peter Selinger 2001-2011
</metadata>
<g transform="translate(0.000000,300.000000) scale(0.100000,-0.100000)"
fill="#000000" stroke="none">
<path d="M1360 2323 c-99 -34 -168 -106 -191 -198 -10 -41 -8 -210 4 -221 2
-2 11 54 20 125 18 145 32 182 77 201 16 7 30 17 30 22 0 5 23 19 50 32 38 18
65 23 108 21 31 -2 59 -4 62 -5 3 -1 10 -3 15 -4 25 -3 87 -41 115 -69 47 -48
57 -95 59 -265 l1 -83 24 28 24 28 -1 -25 c0 -14 3 -34 7 -45 7 -18 6 -18 -4
-2 -18 28 -30 19 -30 -24 0 -34 3 -40 16 -35 12 5 15 2 10 -10 -3 -8 -6 -22
-6 -30 0 -24 -20 -15 -33 15 -9 21 -15 25 -23 17 -8 -9 -7 -15 3 -24 11 -11
10 -17 -3 -37 -10 -15 -13 -32 -9 -42 13 -30 4 -86 -17 -116 -12 -16 -25 -50
-29 -76 -9 -46 -18 -57 -103 -128 -14 -12 -51 -29 -81 -38 -61 -17 -72 -27
-22 -20 76 10 138 40 195 93 27 25 40 56 46 110 1 12 12 35 23 50 l21 27 12
-27 c10 -20 10 -40 3 -78 -6 -27 -7 -50 -3 -50 9 0 20 36 20 66 0 12 6 27 14
33 10 9 13 6 14 -16 2 -78 15 -141 27 -136 10 3 13 -8 13 -42 0 -26 5 -52 10
-57 6 -6 8 -1 5 15 -3 14 -1 27 5 31 10 6 142 -113 142 -128 0 -5 -6 -3 -14 3
-10 9 -9 1 4 -24 11 -22 19 -58 19 -93 0 -31 7 -77 16 -102 9 -29 13 -34 10
-15 -3 17 -7 66 -11 110 -6 80 -6 80 12 50 13 -22 18 -53 18 -117 1 -47 -2
-84 -6 -82 -4 2 -5 -22 -2 -53 3 -41 2 -52 -5 -37 -10 23 -54 198 -72 289 -9
45 -14 55 -19 40 -4 -11 -4 -24 0 -30 4 -5 10 -28 13 -50 5 -35 26 -131 38
-175 2 -8 7 -18 12 -21 4 -3 8 -24 10 -46 1 -23 6 -38 11 -35 5 3 7 -2 3 -11
-3 -10 -3 -17 2 -17 5 0 7 -11 6 -25 -2 -14 0 -25 4 -25 4 0 8 -6 9 -12 4 -39
16 -74 29 -85 8 -6 13 -18 11 -25 -3 -7 4 -35 14 -63 20 -55 16 -101 -10 -108
-15 -4 -15 -5 1 -6 10 0 15 -5 12 -11 -11 -17 -24 -11 -39 18 -20 37 -20 13 0
-27 12 -24 19 -30 27 -22 16 16 27 14 27 -5 0 -14 34 -81 80 -159 24 -39 40
-101 41 -156 1 -57 7 -79 22 -79 8 0 12 24 12 78 -1 83 -6 96 -104 275 l-43
78 18 34 18 34 -41 103 c-58 144 -65 178 -53 230 5 24 10 84 10 135 0 132 -37
231 -121 322 -34 36 -73 73 -88 82 -20 13 -25 23 -23 46 4 39 -32 119 -92 206
-25 37 -46 72 -46 77 0 6 11 15 24 22 32 14 56 75 56 141 0 53 -13 79 -34 71
-9 -4 -10 13 -3 70 16 129 -26 223 -130 286 -84 52 -169 63 -253 33z"/>
<path d="M1567 2050 c-4 -14 0 -20 13 -20 9 0 32 -3 49 -6 26 -6 31 -4 31 14
0 14 -9 21 -31 26 -48 9 -56 8 -62 -14z"/>
<path d="M1236 2011 c-5 -7 2 -11 17 -11 14 0 40 -7 58 -15 l34 -14 -38 -1
c-24 0 -49 -8 -65 -21 l-27 -21 30 3 c17 2 33 8 37 14 5 6 22 2 47 -12 51 -29
57 -29 91 7 26 27 26 29 6 26 -11 -2 -33 5 -48 16 -42 29 -131 47 -142 29z"/>
<path d="M1618 2005 c-2 -2 -19 -6 -38 -9 -20 -3 -52 -12 -72 -20 -19 -8 -38
-12 -42 -9 -3 4 -6 1 -6 -5 0 -6 9 -16 20 -22 11 -6 17 -16 14 -25 -8 -21 19
-19 57 4 28 17 34 18 66 4 45 -18 52 -11 16 17 -20 16 -38 21 -65 18 -21 -2
-34 -1 -30 3 12 11 94 28 108 22 8 -3 14 -1 14 5 0 9 -35 23 -42 17z"/>
<path d="M1116 1923 c-9 -57 -7 -121 4 -128 6 -3 10 4 10 15 0 15 5 20 14 17
12 -5 14 4 11 46 -7 79 -8 87 -21 87 -6 0 -14 -17 -18 -37z"/>
<path d="M1400 1882 c0 -13 -7 -25 -15 -28 -17 -7 -80 -102 -72 -110 3 -3 11
5 18 18 6 12 13 25 15 27 1 2 18 -11 36 -28 36 -34 78 -41 98 -16 7 8 19 15
26 15 8 0 14 6 15 13 0 7 3 7 7 -3 17 -37 65 -110 69 -106 8 7 -86 176 -98
176 -5 0 -2 -11 6 -24 l16 -24 -51 -7 c-34 -5 -56 -3 -63 4 -6 6 -19 11 -29
11 -10 0 -18 4 -18 9 0 11 25 32 32 26 2 -3 11 6 18 20 10 20 11 28 2 37 -9 9
-12 7 -12 -10z"/>
<path d="M1170 1844 c0 -11 7 -29 15 -40 19 -26 20 1 0 36 -13 23 -14 23 -15
4z"/>
<path d="M1160 1785 c0 -24 -2 -25 -35 -19 -32 6 -39 2 -69 -29 -34 -37 -39
-52 -58 -173 l-11 -70 -143 -73 c-228 -116 -361 -215 -403 -301 -26 -52 -60
-194 -75 -317 -10 -81 -23 -131 -51 -198 -21 -49 -46 -115 -57 -145 -18 -53
-18 -55 0 -73 18 -18 18 -21 -21 -130 -24 -68 -41 -132 -41 -162 -1 -27 -5
-60 -9 -72 -7 -19 -5 -23 11 -23 24 0 39 38 41 100 0 25 12 77 27 115 14 39
28 79 31 90 3 11 13 26 21 33 12 9 13 12 2 12 -7 0 -10 3 -7 7 4 3 0 15 -9 24
-19 22 -15 77 9 130 9 19 28 65 42 104 14 38 33 77 41 86 9 10 14 21 11 26 -2
4 -1 17 3 28 5 13 2 26 -7 37 -15 17 -9 43 8 33 5 -4 9 -2 9 4 0 5 -4 12 -9
16 -6 3 -4 25 5 55 8 28 12 55 9 60 -11 18 5 31 26 20 11 -6 16 -16 13 -22 -5
-7 -2 -8 5 -3 9 5 7 13 -9 30 -20 21 -20 24 -5 70 19 54 22 59 86 125 55 57
202 155 247 165 18 3 30 10 28 14 -3 4 33 28 80 53 57 32 84 42 84 32 0 -8 5
-14 10 -14 15 0 12 -34 -5 -66 -19 -37 -19 -53 0 -60 11 -4 15 -21 15 -58 -1
-42 -3 -48 -13 -35 -7 8 -24 24 -39 33 -15 10 -25 22 -22 27 3 5 0 9 -5 9 -14
0 -14 -17 -1 -25 6 -4 7 -11 4 -17 -4 -7 -2 -8 4 -4 22 13 34 -5 15 -21 -17
-13 -17 -13 3 -4 34 17 54 -14 54 -85 1 -44 3 -55 11 -42 9 17 11 50 6 112 -3
38 20 45 33 11 5 -14 14 -23 20 -20 5 3 17 -10 27 -29 9 -19 19 -33 23 -31 3
2 6 -4 7 -13 2 -34 14 -69 44 -132 17 -36 38 -78 45 -94 8 -16 14 -38 14 -49
0 -33 23 -99 30 -87 9 14 48 -67 61 -124 l8 -41 -4 47 c-2 26 -17 75 -33 110
-16 35 -51 116 -78 180 -26 64 -51 115 -54 113 -3 -2 -5 14 -5 35 0 29 -11 52
-43 96 -103 142 -104 143 -100 216 2 37 0 62 -4 55 -5 -7 -8 -1 -8 16 0 16 4
26 10 22 6 -4 10 21 11 67 1 104 17 135 20 38 1 -54 3 -65 8 -41 l6 34 14 -47
c11 -39 16 -45 28 -34 13 10 13 13 -4 19 -16 7 -16 8 0 8 9 1 17 6 17 12 0 6
-9 8 -20 4 -17 -5 -20 -2 -20 24 0 16 5 33 10 36 6 3 10 21 10 38 0 41 41 112
63 111 13 -1 17 6 17 32 0 19 -2 34 -5 34 -3 0 -5 -11 -5 -25z"/>
<path d="M1370 1678 c-13 -5 -29 -7 -35 -4 -7 2 -20 -5 -30 -16 -17 -20 -17
-21 1 -12 11 5 63 9 117 8 88 -1 100 -3 122 -24 28 -26 31 -23 13 15 -6 14
-16 24 -22 22 -6 -2 -22 0 -35 5 -36 13 -103 16 -131 6z"/>
<path d="M1355 1617 c-16 -12 -8 -15 66 -20 46 -3 86 -3 89 0 3 2 -4 11 -14
19 -25 18 -116 18 -141 1z"/>
<path d="M1172 1564 c-38 -30 -62 -67 -37 -58 8 4 15 10 15 15 0 5 5 9 10 9 6
0 10 -11 10 -24 0 -13 7 -26 15 -30 17 -6 21 -36 5 -36 -13 0 -13 -43 1 -57 6
-6 11 -17 13 -26 2 -16 47 -57 62 -57 4 0 -2 10 -14 23 -22 24 -54 101 -45
110 2 3 18 -9 34 -26 20 -21 16 -13 -11 23 -50 68 -59 98 -35 116 21 15 42 7
93 -37 35 -31 93 -59 123 -59 15 0 16 -4 8 -32 -13 -48 -9 -60 5 -13 11 35 19
42 68 61 30 12 72 33 93 47 36 24 36 26 12 23 -15 -1 -36 -11 -48 -22 -18 -16
-36 -19 -113 -19 -77 0 -95 3 -113 20 -12 11 -44 32 -70 47 l-49 27 -32 -25z"/>
<path d="M1086 1424 c1 -19 9 -43 19 -54 10 -11 14 -20 9 -20 -5 0 -4 -4 2 -8
6 -4 19 -22 28 -39 19 -38 27 -42 19 -12 -5 16 -2 20 8 16 8 -3 31 -11 52 -18
23 -8 55 -31 81 -60 41 -46 101 -89 121 -89 6 1 -7 10 -27 21 -21 10 -52 39
-70 64 -23 31 -48 50 -85 65 -58 24 -84 47 -65 59 6 4 8 12 3 20 -7 11 -12 7
-23 -14 l-15 -27 -23 58 c-29 75 -35 81 -34 38z"/>
<path d="M1775 1315 c3 -17 10 -55 15 -85 9 -53 9 -52 4 20 -2 41 -9 79 -14
84 -7 7 -9 0 -5 -19z"/>
<path d="M1854 1253 c2 -16 11 -55 19 -88 9 -33 19 -82 22 -110 11 -80 62
-252 72 -242 2 2 -10 57 -27 123 -41 162 -70 293 -70 321 0 13 -4 23 -10 23
-5 0 -7 -12 -6 -27z"/>
<path d="M1820 1249 c-6 -11 -9 -28 -7 -37 4 -15 5 -15 6 1 0 10 5 15 11 12 6
-4 9 5 8 19 -3 31 -4 32 -18 5z"/>
<path d="M794 1221 c-43 -21 -87 -47 -97 -58 -17 -19 -16 -21 16 -49 49 -42
122 -151 147 -217 23 -60 35 -76 24 -29 -10 38 -45 111 -71 148 -25 35 -21 44
25 68 19 10 31 20 28 23 -3 3 -23 -6 -45 -20 l-39 -26 -16 24 c-16 24 -15 25
24 45 21 11 46 20 53 20 8 0 27 -25 43 -56 16 -31 34 -59 41 -61 7 -3 10 -9 7
-14 -3 -5 -1 -9 4 -9 5 0 15 -14 22 -30 7 -17 15 -29 17 -26 3 3 -13 41 -36
86 l-40 81 30 11 c16 6 28 13 25 16 -3 2 -19 -1 -36 -8 -24 -10 -33 -10 -45 0
-22 18 -19 26 15 40 17 7 29 15 26 17 -2 2 -19 -3 -36 -12 -31 -16 -33 -16
-57 7 l-25 23 49 22 c26 12 43 22 37 22 -5 1 -46 -16 -90 -38z m18 -36 c18
-23 18 -24 -28 -49 -46 -26 -46 -26 -71 -6 l-24 19 48 30 c26 17 50 31 53 30
3 0 13 -10 22 -24z"/>
<path d="M1171 1224 c18 -77 34 -111 49 -106 12 4 11 0 -2 -15 -10 -11 -18
-27 -18 -36 0 -19 34 -57 51 -57 7 0 0 9 -15 21 -25 19 -34 48 -19 62 3 4 12
2 19 -4 9 -8 11 -5 7 11 -3 12 -12 24 -19 27 -8 3 -21 31 -30 62 -19 65 -37
92 -23 35z"/>
<path d="M1902 1236 c3 -29 38 -44 38 -17 0 18 -18 41 -32 41 -4 0 -7 -11 -6
-24z"/>
<path d="M1557 1150 c-32 -24 -42 -27 -74 -19 -49 10 -54 4 -9 -11 32 -10 40
-9 70 9 29 18 66 52 55 50 -2 0 -21 -13 -42 -29z"/>
<path d="M1745 1159 c4 -13 18 -52 32 -87 73 -185 105 -400 79 -516 -20 -85
-15 -98 8 -18 20 72 20 165 1 257 -9 39 -22 113 -30 165 -9 60 -20 99 -30 106
-8 6 -18 25 -21 42 -4 18 -10 29 -15 26 -5 -3 -9 4 -9 15 0 11 -5 23 -11 27
-8 4 -9 -1 -4 -17z"/>
<path d="M1820 1164 c0 -8 -4 -12 -10 -9 -5 3 -10 2 -10 -3 0 -8 22 -22 35
-22 11 0 10 40 -1 44 -8 3 -14 -1 -14 -10z"/>
<path d="M648 1013 c6 -10 22 -29 36 -42 26 -25 36 -48 14 -35 -7 4 -8 3 -4
-5 4 -6 11 -9 14 -7 4 2 33 -35 65 -82 32 -49 57 -78 57 -67 0 32 -136 227
-172 246 -17 9 -18 8 -10 -8z"/>
<path d="M1091 949 c6 -11 17 -23 25 -26 8 -3 14 -12 14 -21 0 -8 2 -13 5 -10
10 10 -7 58 -18 51 -6 -4 -8 0 -5 8 4 10 -1 15 -13 16 -16 2 -17 -1 -8 -18z"/>
<path d="M1138 857 c-3 -14 -1 -24 4 -21 5 3 6 -7 3 -23 -5 -22 -4 -25 5 -13
9 12 10 8 5 -19 -5 -23 -4 -31 4 -27 7 5 11 -2 11 -18 0 -14 4 -26 9 -26 9 0
-10 104 -27 149 l-9 25 -5 -27z"/>
<path d="M1017 826 c-5 -11 -3 -15 5 -10 7 5 9 0 6 -14 -4 -12 -2 -22 2 -22 5
0 10 -6 13 -12 2 -7 2 1 -1 17 -6 44 -17 61 -25 41z"/>
<path d="M1935 781 c-3 -6 12 -10 35 -9 22 0 40 4 40 9 0 12 -67 12 -75 0z"/>
<path d="M1960 693 c11 -26 22 -65 25 -86 5 -33 9 -37 30 -33 33 6 47 15 39
27 -3 5 -11 6 -17 2 -22 -14 -37 -11 -37 6 0 28 -30 109 -45 121 -10 8 -8 -3
5 -37z"/>
<path d="M2027 540 c-3 -14 -11 -54 -17 -90 -5 -36 -13 -76 -16 -90 -5 -21 -4
-22 6 -7 13 20 43 184 37 200 -3 7 -7 1 -10 -13z"/>
<path d="M681 419 c-11 -34 -35 -84 -53 -111 -31 -50 -32 -50 -77 -45 -25 2
-55 7 -66 11 -11 3 -6 0 10 -8 17 -8 48 -15 70 -16 39 0 43 3 73 53 31 51 76
166 68 174 -2 2 -13 -24 -25 -58z"/>
<path d="M2010 326 c0 -38 -28 -79 -56 -81 -10 -1 -29 -5 -42 -9 -22 -7 -23
-6 -20 31 3 37 4 38 41 35 20 -2 37 1 37 6 0 5 -11 7 -25 4 -14 -2 -31 1 -39
7 -16 14 -26 -12 -26 -72 0 -35 2 -38 23 -31 12 4 37 11 56 15 19 4 42 16 52
26 22 23 32 103 13 103 -9 0 -14 -12 -14 -34z"/>
<path d="M735 128 c-4 -18 -18 -51 -31 -74 -28 -48 -29 -54 -9 -54 8 0 15 6
15 13 0 6 6 24 13 38 14 25 31 109 23 109 -2 0 -8 -15 -11 -32z"/>
<path d="M737 53 c-13 -13 -7 -53 8 -53 8 0 15 8 15 18 0 22 -14 44 -23 35z"/>
</g>
</svg>
